<svg width="52" height="52" viewBox="0 0 52 52" fill="none" xmlns="http://www.w3.org/2000/svg">
<g filter="url(#filter0_d_302_1238)">
<g clip-path="url(#clip0_302_1238)">
<path d="M14 14H38V38H14V14Z" fill="#00ABC2"></path>
<path d="M27.5303 26.9885C29.3144 26.9885 30.7607 25.5422 30.7607 23.7581C30.7607 21.974 29.3144 20.5277 27.5303 20.5277C25.7462 20.5277 24.2999 21.974 24.2999 23.7581C24.2999 25.5422 25.7462 26.9885 27.5303 26.9885Z" fill="#FFEC2D"></path>
<path d="M27.5302 20.0885C27.7222 20.0861 27.7942 19.9661 27.7942 19.8221C27.7942 19.6301 27.5302 18.7157 27.5302 18.7157C27.5302 18.7157 27.2662 19.6301 27.2662 19.8221C27.2662 19.9661 27.3382 20.0885 27.5302 20.0885Z" fill="#FFEC2D"></path>
<path d="M31.1998 23.7581C31.2022 23.9501 31.3222 24.0221 31.4662 24.0221C31.6582 24.0221 32.5726 23.7581 32.5726 23.7581C32.5726 23.7581 31.6582 23.4941 31.4662 23.4941C31.3222 23.4941 31.1998 23.5661 31.1998 23.7581Z" fill="#FFEC2D"></path>
<path d="M27.5303 27.4277C27.3383 27.4301 27.2663 27.5501 27.2663 27.6941C27.2663 27.8861 27.5303 28.8005 27.5303 28.8005C27.5303 28.8005 27.7943 27.8861 27.7943 27.6941C27.7943 27.5501 27.7223 27.4277 27.5303 27.4277Z" fill="#FFEC2D"></path>
<path d="M23.8607 23.7581C23.8583 23.5661 23.7383 23.4941 23.5943 23.4941C23.4023 23.4941 22.4879 23.7581 22.4879 23.7581C22.4879 23.7581 23.4023 24.0221 23.5943 24.0221C23.7383 24.0221 23.8607 23.9501 23.8607 23.7581Z" fill="#FFEC2D"></path>
<path d="M28.9346 20.3679C29.1129 20.4391 29.2253 20.3558 29.2804 20.2228C29.3539 20.0454 29.4599 19.0996 29.4599 19.0996C29.4599 19.0996 28.8661 19.8433 28.7926 20.0207C28.7375 20.1538 28.7572 20.2944 28.9346 20.3679Z" fill="#FFEC2D"></path>
<path d="M30.9205 25.1624C30.8493 25.3407 30.9326 25.4532 31.0656 25.5083C31.243 25.5818 32.1888 25.6878 32.1888 25.6878C32.1888 25.6878 31.4451 25.094 31.2677 25.0205C31.1346 24.9654 30.994 24.985 30.9205 25.1624Z" fill="#FFEC2D"></path>
<path d="M26.126 27.1484C25.9477 27.0771 25.8352 27.1605 25.7801 27.2935C25.7067 27.4709 25.6006 28.4167 25.6006 28.4167C25.6006 28.4167 26.1945 27.6729 26.2679 27.4956C26.3231 27.3625 26.3034 27.2219 26.126 27.1484Z" fill="#FFEC2D"></path>
<path d="M24.14 22.3538C24.2112 22.1755 24.1279 22.0631 23.9949 22.008C23.8175 21.9345 22.8717 21.8285 22.8717 21.8285C22.8717 21.8285 23.6154 22.4223 23.7928 22.4958C23.9258 22.5509 24.0665 22.5312 24.14 22.3538Z" fill="#FFEC2D"></path>
<path d="M30.1251 21.1633C30.2625 21.2974 30.3983 21.2635 30.5001 21.1616C30.6359 21.0259 31.0958 20.1926 31.0958 20.1926C31.0958 20.1926 30.2625 20.6525 30.1268 20.7883C30.025 20.8901 29.9893 21.0276 30.1251 21.1633Z" fill="#FFEC2D"></path>
<path d="M30.1251 26.3529C29.991 26.4904 30.025 26.6262 30.1268 26.728C30.2625 26.8638 31.0958 27.3237 31.0958 27.3237C31.0958 27.3237 30.6359 26.4904 30.5001 26.3546C30.3983 26.2528 30.2608 26.2172 30.1251 26.3529Z" fill="#FFEC2D"></path>
<path d="M24.9355 26.3529C24.798 26.2189 24.6622 26.2528 24.5604 26.3546C24.4247 26.4904 23.9648 27.3237 23.9648 27.3237C23.9648 27.3237 24.798 26.8638 24.9338 26.728C25.0356 26.6262 25.0712 26.4887 24.9355 26.3529Z" fill="#FFEC2D"></path>
<path d="M24.9355 21.1633C25.0695 21.0259 25.0356 20.8901 24.9338 20.7883C24.798 20.6525 23.9648 20.1926 23.9648 20.1926C23.9648 20.1926 24.4247 21.0259 24.5604 21.1616C24.6622 21.2635 24.7997 21.2991 24.9355 21.1633Z" fill="#FFEC2D"></path>
<path d="M30.9206 22.3538C30.9962 22.5303 31.1347 22.5509 31.2677 22.4958C31.4451 22.4223 32.1889 21.8285 32.1889 21.8285C32.1889 21.8285 31.243 21.9345 31.0656 22.008C30.9326 22.0631 30.8471 22.1765 30.9206 22.3538Z" fill="#FFEC2D"></path>
<path d="M28.9346 27.1484C28.7581 27.2241 28.7375 27.3625 28.7926 27.4956C28.8661 27.6729 29.46 28.4167 29.46 28.4167C29.46 28.4167 29.3539 27.4709 29.2805 27.2935C29.2254 27.1605 29.112 27.0749 28.9346 27.1484Z" fill="#FFEC2D"></path>
<path d="M24.1401 25.1624C24.0644 24.986 23.9259 24.9654 23.7929 25.0205C23.6155 25.094 22.8717 25.6878 22.8717 25.6878C22.8717 25.6878 23.8176 25.5818 23.995 25.5083C24.128 25.4532 24.2135 25.3398 24.1401 25.1624Z" fill="#FFEC2D"></path>
<path d="M26.126 20.3679C26.3025 20.2922 26.3231 20.1538 26.268 20.0207C26.1945 19.8433 25.6007 19.0996 25.6007 19.0996C25.6007 19.0996 25.7067 20.0454 25.7802 20.2228C25.8353 20.3558 25.9486 20.4413 26.126 20.3679Z" fill="#FFEC2D"></path>
<path d="M28.2493 20.1597C28.4381 20.1949 28.5322 20.0914 28.5604 19.9502C28.5981 19.7619 28.5183 18.8135 28.5183 18.8135C28.5183 18.8135 28.0803 19.6584 28.0427 19.8467C28.0144 19.9879 28.0611 20.122 28.2493 20.1597Z" fill="#FFEC2D"></path>
<path d="M31.1288 24.4772C31.0935 24.6659 31.1971 24.76 31.3383 24.7883C31.5265 24.8259 32.4749 24.7462 32.4749 24.7462C32.4749 24.7462 31.63 24.3081 31.4417 24.2705C31.3005 24.2423 31.1664 24.2889 31.1288 24.4772Z" fill="#FFEC2D"></path>
<path d="M26.8113 27.3566C26.6225 27.3213 26.5284 27.4249 26.5002 27.5661C26.4626 27.7544 26.5423 28.7028 26.5423 28.7028C26.5423 28.7028 26.9803 27.8578 27.0179 27.6696C27.0462 27.5284 26.9995 27.3942 26.8113 27.3566Z" fill="#FFEC2D"></path>
<path d="M23.9318 23.0391C23.9671 22.8503 23.8635 22.7562 23.7223 22.728C23.534 22.6904 22.5856 22.7701 22.5856 22.7701C22.5856 22.7701 23.4305 23.2081 23.6188 23.2458C23.76 23.274 23.8942 23.2274 23.9318 23.0391Z" fill="#FFEC2D"></path>
<path d="M29.5717 20.7087C29.7325 20.8136 29.8591 20.7539 29.9392 20.6342C30.046 20.4747 30.3353 19.568 30.3353 19.568C30.3353 19.568 29.6073 20.181 29.5005 20.3405C29.4204 20.4602 29.4121 20.6019 29.5717 20.7087Z" fill="#FFEC2D"></path>
<path d="M30.5797 25.7995C30.4749 25.9604 30.5345 26.087 30.6542 26.1671C30.8137 26.2739 31.7204 26.5632 31.7204 26.5632C31.7204 26.5632 31.1075 25.8351 30.9479 25.7283C30.8282 25.6482 30.6865 25.64 30.5797 25.7995Z" fill="#FFEC2D"></path>
<path d="M25.4889 26.8075C25.328 26.7027 25.2014 26.7624 25.1213 26.882C25.0145 27.0416 24.7252 27.9483 24.7252 27.9483C24.7252 27.9483 25.4533 27.3353 25.5601 27.1758C25.6402 27.0561 25.6484 26.9143 25.4889 26.8075Z" fill="#FFEC2D"></path>
<path d="M24.4809 21.7167C24.5858 21.5559 24.5261 21.4293 24.4064 21.3492C24.2469 21.2424 23.3402 20.9531 23.3402 20.9531C23.3402 20.9531 23.9532 21.6811 24.1127 21.7879C24.2324 21.868 24.3741 21.8763 24.4809 21.7167Z" fill="#FFEC2D"></path>
<path d="M30.5832 21.7221C30.6918 21.8805 30.8315 21.8738 30.9513 21.7939C31.1111 21.6874 31.7253 20.9604 31.7253 20.9604C31.7253 20.9604 30.8181 21.2481 30.6584 21.3546C30.5386 21.4345 30.4767 21.5623 30.5832 21.7221Z" fill="#FFEC2D"></path>
<path d="M29.5663 26.8111C29.4079 26.9196 29.4146 27.0594 29.4945 27.1792C29.601 27.3389 30.328 27.9532 30.328 27.9532C30.328 27.9532 30.0403 27.046 29.9338 26.8862C29.8539 26.7664 29.7261 26.7045 29.5663 26.8111Z" fill="#FFEC2D"></path>
<path d="M24.4774 25.7942C24.3689 25.6358 24.2291 25.6425 24.1093 25.7224C23.9495 25.8289 23.3353 26.5559 23.3353 26.5559C23.3353 26.5559 24.2425 26.2682 24.4022 26.1616C24.522 26.0817 24.5839 25.9539 24.4774 25.7942Z" fill="#FFEC2D"></path>
<path d="M25.4943 20.7052C25.6527 20.5967 25.646 20.4569 25.5661 20.3371C25.4596 20.1773 24.7326 19.5631 24.7326 19.5631C24.7326 19.5631 25.0203 20.4703 25.1268 20.63C25.2067 20.7498 25.3345 20.8117 25.4943 20.7052Z" fill="#FFEC2D"></path>
<path d="M31.13 23.0454C31.1696 23.2332 31.3013 23.2806 31.4426 23.2526C31.6309 23.2153 32.4766 22.7787 32.4766 22.7787C32.4766 22.7787 31.5284 22.6974 31.34 22.7346C31.1988 22.7626 31.0927 22.857 31.13 23.0454Z" fill="#FFEC2D"></path>
<path d="M28.2431 27.3578C28.0552 27.3975 28.0079 27.5292 28.0358 27.6704C28.0731 27.8588 28.5097 28.7045 28.5097 28.7045C28.5097 28.7045 28.5911 27.7562 28.5538 27.5679C28.5258 27.4266 28.4314 27.3205 28.2431 27.3578Z" fill="#FFEC2D"></path>
<path d="M23.9306 24.4709C23.8909 24.283 23.7592 24.2357 23.618 24.2637C23.4296 24.301 22.5839 24.7375 22.5839 24.7375C22.5839 24.7375 23.5322 24.8189 23.7205 24.7816C23.8618 24.7536 23.9679 24.6592 23.9306 24.4709Z" fill="#FFEC2D"></path>
<path d="M26.8175 20.1584C27.0054 20.1188 27.0527 19.9871 27.0248 19.8458C26.9875 19.6575 26.5509 18.8118 26.5509 18.8118C26.5509 18.8118 26.4695 19.76 26.5068 19.9484C26.5348 20.0896 26.6292 20.1957 26.8175 20.1584Z" fill="#FFEC2D"></path>
<path d="M27.4183 29.4C27.3343 29.5512 27.2839 29.7264 27.1783 29.8632C26.8519 29.568 26.3815 29.5752 25.9687 29.5584C25.6279 29.5392 25.2583 29.508 24.9943 29.2656C24.7183 29.0376 24.4903 28.7448 24.1831 28.56C23.8944 28.4978 23.6231 28.3724 23.3887 28.1928C22.9039 27.7968 22.6255 27.2088 22.1503 26.8008C22.0615 26.7144 21.9535 26.6448 21.8527 26.5704C21.7567 26.5944 21.7999 26.8008 21.6823 26.6952C21.6175 26.6472 21.4567 26.6448 21.4423 26.7096C21.5863 26.9016 21.7327 27.1176 21.7543 27.3624C21.6535 27.372 21.4783 27.3408 21.4303 27.3768C21.5622 27.5746 21.7279 27.7477 21.9199 27.888C21.8287 27.9024 21.6487 27.8952 21.6127 27.9312C21.7924 28.1033 22.0142 28.2249 22.2559 28.284C22.3039 28.3512 22.1815 28.4808 22.2871 28.5384C22.3471 28.5624 22.5487 28.6056 22.4095 28.6752C22.3135 28.7376 22.3495 28.8888 22.4719 28.884C22.5487 28.9248 22.7215 28.932 22.7359 29.004C22.6663 29.0712 22.4551 29.1528 22.6351 29.22C22.8048 29.3162 22.9947 29.3713 23.1895 29.3808C23.0935 29.4624 22.9735 29.508 22.8751 29.5848C23.3191 29.8464 23.8111 30.0168 24.3007 30.1848C24.4927 30.2472 24.6919 30.3072 24.8935 30.3456C24.3079 30.312 23.7415 30.1392 23.2087 29.9016C22.9327 29.7816 22.6567 29.664 22.3735 29.5608C22.4959 29.496 22.6399 29.4792 22.7695 29.424C22.5007 29.3712 22.2103 29.352 21.9775 29.208C22.0111 29.1408 22.1455 29.1384 22.2223 29.1048C22.3663 29.0712 22.4527 29.0328 22.2535 29.0184C22.0519 28.9632 21.8215 28.9872 21.6415 28.8672C21.6535 28.7952 21.8407 28.8192 21.9151 28.788C22.0111 28.7712 22.1167 28.7568 22.1935 28.692C21.8815 28.5648 21.4735 28.656 21.2287 28.38C21.1735 28.2744 21.4039 28.3584 21.4687 28.3416C21.6367 28.3416 21.8167 28.3944 21.9775 28.3272C21.5215 28.128 21.0343 27.9432 20.6887 27.5736C20.6503 27.5136 20.5351 27.3504 20.6287 27.3312C20.8975 27.3672 21.0919 27.66 21.3823 27.6144C21.4207 27.564 21.2143 27.48 21.1615 27.4056C20.7273 27.0568 20.3486 26.6441 20.0383 26.1816C20.0191 26.0208 20.2663 25.9968 20.3311 26.1192C20.6527 26.4312 20.9431 26.7912 21.3439 27.0024C21.4879 27.072 21.2623 26.9208 21.2335 26.8656C20.8523 26.443 20.5228 25.9765 20.2519 25.476C20.2039 25.3848 20.1295 25.2192 20.2687 25.1712C20.4055 25.1016 20.5447 25.1952 20.6143 25.3152C20.8855 25.6584 21.0871 26.0664 21.4255 26.352C21.1375 25.7928 20.8279 25.2 20.8207 24.5568C20.8279 24.432 20.8351 24.2448 21.0055 24.2472C21.1495 24.2256 21.1255 24.408 21.1735 24.4944C21.3127 24.9696 21.3727 25.4832 21.6535 25.9008C21.5935 25.5504 21.4999 25.188 21.5623 24.8304C21.5767 24.7104 21.7063 24.6768 21.7951 24.7488C21.8647 24.9168 21.8791 25.1304 21.9415 25.3128C22.3155 26.5552 23.1031 27.6323 24.1735 28.3656C25.05 28.9653 26.0726 29.3162 27.1327 29.3808C27.2287 29.3904 27.3247 29.3928 27.4183 29.3976M30.6919 31.584C30.5191 31.6896 30.3847 31.5024 30.2407 31.4472C30.1351 31.5048 30.1255 31.692 30.0295 31.7832C29.9143 31.9152 29.7703 31.7448 29.7823 31.6152C29.6431 31.7328 29.5735 31.9992 29.3503 31.9608C29.2423 31.8744 29.1631 31.692 29.0815 31.9008C29.0167 32.0016 28.8415 32.1456 28.7479 31.992C28.7191 31.8576 28.6519 31.6992 28.5799 31.9128C28.5271 32.0664 28.3639 32.1768 28.2103 32.1096C28.1239 32.04 28.2775 31.7808 28.1695 31.7976C28.0063 31.908 27.9103 32.1744 27.6823 32.1528C27.5935 32.0568 27.7375 31.8864 27.6391 31.776C27.5263 31.9224 27.3991 32.1384 27.1999 32.1528C27.1039 32.076 27.2047 31.8528 27.1423 31.8216C26.9407 31.9416 26.7247 32.16 26.4703 32.0928C26.5687 31.7088 26.9863 31.5768 27.3343 31.548C27.9367 31.4736 28.5703 31.6104 29.1511 31.392C29.2447 31.3344 29.4703 31.2552 29.3911 31.1232C29.3191 31.0176 29.5759 31.0584 29.5999 30.936C29.5855 30.7824 29.7199 30.804 29.8495 30.792C30.4351 30.7656 31.0135 30.888 31.5967 30.9096C31.6399 31.1928 31.3255 31.392 31.0687 31.3056C30.9487 31.3248 30.7687 31.0272 30.8047 31.2432C30.7807 31.3584 30.7951 31.5072 30.6919 31.584ZM25.7143 31.0032C25.8487 31.1256 25.9447 30.9792 26.0719 30.924C26.4873 30.7614 26.8775 30.5408 27.2311 30.2688C27.4519 30.0864 27.6439 29.8488 27.9415 29.7888C28.5223 29.6136 29.1391 29.6352 29.7199 29.472C30.1639 28.8672 30.9151 28.6488 31.5463 28.3008C31.6879 28.2576 31.7431 28.14 31.7863 28.0128C32.0263 27.6312 32.3551 27.2952 32.7439 27.0648C32.9274 26.9564 33.1436 26.9173 33.3535 26.9544C33.3246 27.1992 33.2077 27.4252 33.0247 27.5904C33.1663 27.588 33.2887 27.4992 33.4279 27.504C33.4759 27.7584 33.2023 27.8904 33.0559 28.0488C33.1375 28.068 33.4495 28.092 33.2791 28.1736C33.0631 28.3224 32.8159 28.4256 32.6167 28.6008C32.8015 28.6344 32.8231 28.6728 32.6359 28.74C32.5327 28.8072 32.3383 28.8312 32.3191 28.9656C32.4583 29.052 32.2567 29.1336 32.1775 29.1624C32.0287 29.1984 31.8703 29.2632 32.0695 29.3784C31.9951 29.4912 31.8319 29.5152 31.6999 29.5032C31.7407 29.6328 31.7983 29.7768 31.6327 29.8344C31.2612 30.128 30.8162 30.314 30.3463 30.372C30.9343 30.4152 31.5415 30.3072 32.0431 29.988C32.1103 29.9088 32.4583 29.8224 32.2639 29.7576C32.1727 29.7192 31.9759 29.676 31.9615 29.6064C32.2351 29.4384 32.5783 29.4984 32.8711 29.4C32.8783 29.304 32.6479 29.3304 32.5615 29.3088C32.3575 29.292 32.3695 29.2392 32.5663 29.22C32.8159 29.1528 33.0991 29.1408 33.3103 28.98C33.1399 28.8984 32.9239 28.968 32.7415 28.9032C33.0511 28.7688 33.4159 28.7544 33.6943 28.5504C33.8215 28.4088 33.5311 28.4544 33.4471 28.4568C33.2767 28.488 33.1975 28.404 33.3919 28.3344C33.7255 28.0872 34.1455 27.9288 34.3807 27.5736C34.4359 27.4944 34.5103 27.2544 34.3327 27.3384C34.1023 27.4176 33.8983 27.6768 33.6319 27.5976C34.1551 27.192 34.6495 26.7336 35.0071 26.1744C35.0263 26.0112 34.7719 25.9944 34.7071 26.1216C34.3711 26.4432 34.0687 26.8248 33.6391 27.0288C34.044 26.6239 34.3957 26.169 34.6855 25.6752C34.7503 25.5312 34.9207 25.356 34.8295 25.1952C34.6783 25.0704 34.4911 25.1856 34.4143 25.332C34.1527 25.6728 33.9559 26.0688 33.6223 26.3472C33.9127 25.788 34.2175 25.1904 34.2223 24.5472C34.2223 24.4128 34.1983 24.216 34.0159 24.2424C33.8719 24.2664 33.9079 24.4824 33.8479 24.5904C33.7183 25.032 33.6559 25.5096 33.3919 25.8936C33.4519 25.536 33.5551 25.1616 33.4759 24.8016C33.4375 24.6384 33.1759 24.708 33.2119 24.8688C32.8999 26.4504 31.8367 27.8328 30.4519 28.632C29.8159 28.992 29.1079 29.2224 28.3831 29.328C28.1911 29.3688 27.9799 29.3448 27.7951 29.412C27.3439 29.7552 27.0727 30.3336 26.5039 30.5136C26.2471 30.6408 25.9159 30.6672 25.7335 30.9024C25.7187 30.9338 25.7121 30.9685 25.7143 31.0032ZM26.9551 30.756C26.8687 30.7608 26.7847 30.7704 26.7007 30.7968C26.5879 30.8136 26.4799 30.852 26.3695 30.8688L26.3239 30.8784L26.2495 30.8856C26.2592 30.9258 26.2592 30.9678 26.2495 31.008C26.2417 31.0261 26.2303 31.0425 26.2159 31.056C26.2015 31.0752 26.1847 31.0896 26.1631 31.0992C26.1436 31.1088 26.1224 31.1145 26.1007 31.116C26.0791 31.116 26.0575 31.116 26.0359 31.1064C26.0143 31.0992 25.9951 31.0872 25.9759 31.0704L25.9087 31.0824H25.8463L25.7791 31.0584C25.7574 31.0499 25.7365 31.0395 25.7167 31.0272C25.6351 31.0752 25.5439 31.1208 25.4935 31.2048C25.4701 31.2432 25.4568 31.287 25.4551 31.332C25.4503 31.3896 25.4647 31.4472 25.4887 31.5C25.4983 31.5144 25.5055 31.4448 25.5319 31.4352C25.5775 31.3968 25.6351 31.3704 25.6927 31.356C25.7407 31.332 25.7335 31.356 25.7143 31.3944C25.7095 31.416 25.6831 31.4904 25.7191 31.452C25.8851 31.39 26.0604 31.3567 26.2375 31.3536C26.4919 31.3272 26.7463 31.32 27.0007 31.3176L27.7207 31.332C27.8359 31.3368 27.9511 31.3608 28.0639 31.3416C28.0903 31.3344 28.1335 31.3344 28.1503 31.3176C28.0975 31.2888 28.0375 31.2864 27.9823 31.2792H27.5239C27.3967 31.2672 27.2647 31.2648 27.1447 31.2168C27.1111 31.2048 27.0823 31.1736 27.0511 31.2072C27.0054 31.2235 26.9578 31.234 26.9095 31.2384C26.8255 31.2432 26.7415 31.2264 26.6647 31.1952C26.7199 31.1184 26.7871 31.0512 26.8495 30.9792L26.7007 30.948C26.7895 30.888 26.8687 30.8184 26.9551 30.756Z" fill="#FFEC2D"></path>
<path d="M26.0791 31.0392C26.1109 31.0392 26.1367 31.0134 26.1367 30.9816C26.1367 30.9498 26.1109 30.924 26.0791 30.924C26.0473 30.924 26.0215 30.9498 26.0215 30.9816C26.0215 31.0134 26.0473 31.0392 26.0791 31.0392Z" fill="#FFEC2D"></path>
<path d="M26.0743 30.996C26.0875 30.996 26.0983 30.9853 26.0983 30.972C26.0983 30.9587 26.0875 30.948 26.0743 30.948C26.061 30.948 26.0503 30.9587 26.0503 30.972C26.0503 30.9853 26.061 30.996 26.0743 30.996Z" fill="#FFEC2D" stroke="#FFEC2D" stroke-width="0.2048"></path>
<path d="M17.44 15.432C17.44 15.432 17.2096 15.2352 17.1304 15.3336C17.0056 15.4896 17.5192 16.2696 17.5192 16.5432C17.5192 16.9944 17.2168 17.1168 16.8472 17.1792C16.5976 17.2224 16.192 17.1624 16.192 17.1624C16.2688 17.0592 16.3192 17.028 16.4464 17.0208C16.3024 16.9488 16.1584 16.7856 16.1584 16.5336C16.1584 16.1472 16.3168 15.9864 16.3168 15.5496C16.3168 15.312 16.12 15 16.12 15C16.4704 15.036 16.6432 15.36 16.5448 15.6192C16.5718 15.6246 16.5997 15.6232 16.6261 15.6153C16.6525 15.6073 16.6765 15.593 16.696 15.5736C16.72 15.6456 16.6816 15.7296 16.6264 15.8016C16.6696 15.8256 16.7032 15.8112 16.7704 15.7968C16.7656 15.8688 16.7224 15.9504 16.612 16.0248C16.9288 15.9432 17.1208 16.1616 17.1208 16.392C17.1208 16.5672 17.0008 16.692 16.8808 16.692C16.8424 16.692 16.7848 16.6752 16.7536 16.6512C16.7296 16.6992 16.744 16.764 16.7656 16.812C16.6792 16.788 16.6216 16.7352 16.6624 16.6272C16.5952 16.6224 16.5424 16.5984 16.5064 16.5552C16.5424 16.5072 16.5976 16.4832 16.6624 16.4832C16.6144 16.3824 16.6696 16.3272 16.7488 16.2816C16.7488 16.2816 16.6984 16.4832 16.8256 16.4832C16.8832 16.4832 16.936 16.4664 16.936 16.38C16.936 16.3056 16.8712 16.2024 16.72 16.2096C16.5712 16.2168 16.4488 16.3128 16.4488 16.5528C16.4488 16.7736 16.6288 16.884 16.864 16.8888C17.0752 16.8984 17.236 16.7832 17.236 16.5648C17.236 16.272 16.816 15.6096 16.816 15.3504C16.816 15.156 16.9888 15.0456 17.1616 15.0456C17.3824 15.0456 17.5696 15.2664 17.5696 15.2664L17.44 15.4296V15.432Z" fill="#FFEC2D"></path>
<path d="M17.488 20.6904C17.488 21.1776 17.0512 21.4272 16.708 21.4272C16.2472 21.4272 16 21.1512 16 20.7888C16 20.5848 16.0384 20.4552 16.132 20.2608L17.1928 18.06C17.2312 17.9674 17.2477 17.8672 17.2408 17.7672C17.2408 17.5704 17.0488 17.4096 16.8496 17.4072C16.6672 17.4 16.4656 17.5752 16.4656 17.7744C16.4656 18.0168 16.5928 18.1248 16.7224 18.1248C16.8808 18.1248 16.9432 18.06 16.9432 17.9472C16.9432 17.8704 16.9072 17.8368 16.852 17.8368C16.7152 17.8368 16.756 18.0192 16.756 18.0192C16.7379 18.0159 16.7208 18.0086 16.7059 17.9979C16.691 17.9871 16.6786 17.9733 16.6697 17.9572C16.6607 17.9412 16.6554 17.9233 16.6542 17.905C16.6529 17.8867 16.6557 17.8683 16.6624 17.8512C16.611 17.8397 16.5647 17.8119 16.5304 17.772C16.5664 17.736 16.6096 17.7096 16.6624 17.7C16.6312 17.5944 16.6744 17.544 16.7656 17.52C16.7492 17.5561 16.745 17.5965 16.7536 17.6352C16.8976 17.592 17.1208 17.6592 17.1208 17.9088C17.1208 18.1584 16.948 18.3672 16.624 18.3168C16.7008 18.3528 16.7392 18.4272 16.7488 18.5112C16.6888 18.4872 16.624 18.4872 16.624 18.4872C16.6624 18.552 16.7152 18.6072 16.7128 18.7416C16.6528 18.7128 16.5952 18.6624 16.5208 18.6936C16.6408 18.9336 16.492 19.26 16.1128 19.3368C16.252 19.1736 16.3192 19.0008 16.3192 18.8256C16.3192 18.2616 16.1632 18.168 16.1632 17.7744C16.1657 17.6831 16.1898 17.5937 16.2336 17.5136C16.2774 17.4335 16.3397 17.3649 16.4152 17.3136V17.3208C16.3688 17.3113 16.3249 17.292 16.2864 17.2643C16.2479 17.2366 16.2158 17.201 16.192 17.16C16.4594 17.0863 16.742 17.0888 17.008 17.1672C17.097 17.1798 17.182 17.2122 17.2568 17.262C17.3315 17.3119 17.3942 17.3779 17.44 17.4552C17.4879 17.5645 17.5127 17.6826 17.5127 17.802C17.5127 17.9214 17.4879 18.0395 17.44 18.1488C17.2888 18.4608 16.5832 19.9632 16.3624 20.4336C16.3144 20.5344 16.288 20.64 16.288 20.7552C16.288 21.0432 16.552 21.144 16.7008 21.144C16.8808 21.144 17.0656 21.0072 17.0656 20.8368C17.0656 20.7288 17.0056 20.6616 16.9216 20.6616C16.7176 20.6616 16.7296 20.8344 16.7704 20.9448C16.6432 20.8872 16.5712 20.7864 16.5904 20.6808C16.5116 20.6676 16.4402 20.6267 16.3888 20.5656C16.4368 20.5032 16.4992 20.4552 16.5904 20.4528C16.5496 20.2872 16.6624 20.2176 16.7704 20.1792C16.7368 20.2992 16.7128 20.4408 16.9216 20.4408C17.0728 20.4408 17.1904 20.4648 17.26 20.5656L17.2768 19.9176C17.2864 19.7232 17.0176 19.7256 16.8448 19.7856C16.9096 19.5624 17.0416 19.44 17.3488 19.4712C17.3017 19.4531 17.2616 19.4206 17.234 19.3784C17.2064 19.3362 17.1928 19.2864 17.1952 19.236C17.1952 19.0536 17.344 18.852 17.44 18.792L17.488 20.688V20.6904Z" fill="#FFEC2D"></path>
<path d="M17.488 22.1496C17.488 21.6624 17.0512 21.4128 16.708 21.4128C16.2472 21.4128 16 21.6888 16 22.0512C16 22.2552 16.0384 22.3848 16.132 22.5792L17.1928 24.78C17.2312 24.8726 17.2477 24.9728 17.2408 25.0728C17.2408 25.2696 17.0488 25.4304 16.8496 25.4328C16.6672 25.44 16.4656 25.2648 16.4656 25.0656C16.4656 24.8232 16.5928 24.7152 16.7224 24.7152C16.8808 24.7152 16.9432 24.78 16.9432 24.8928C16.9432 24.9696 16.9072 25.0032 16.852 25.0032C16.7152 25.0032 16.756 24.8208 16.756 24.8208C16.7379 24.8241 16.7208 24.8314 16.7059 24.8421C16.691 24.8529 16.6786 24.8667 16.6697 24.8828C16.6607 24.8988 16.6554 24.9167 16.6542 24.935C16.6529 24.9533 16.6557 24.9717 16.6624 24.9888C16.611 25.0003 16.5647 25.0281 16.5304 25.068C16.5664 25.104 16.6096 25.1304 16.6624 25.14C16.6312 25.2456 16.6744 25.296 16.7656 25.32C16.7492 25.2839 16.745 25.2435 16.7536 25.2048C16.8976 25.248 17.1208 25.1808 17.1208 24.9312C17.1208 24.6816 16.948 24.4728 16.624 24.5232C16.7008 24.4872 16.7392 24.4128 16.7488 24.3288C16.6888 24.3528 16.624 24.3528 16.624 24.3528C16.6624 24.288 16.7152 24.2328 16.7128 24.0984C16.6528 24.1272 16.5952 24.1776 16.5208 24.1464C16.6408 23.9064 16.492 23.58 16.1128 23.5032C16.252 23.6664 16.3192 23.8392 16.3192 24.0144C16.3192 24.5784 16.1632 24.672 16.1632 25.0656C16.1657 25.1569 16.1898 25.2463 16.2336 25.3264C16.2774 25.4065 16.3397 25.4751 16.4152 25.5264V25.5192C16.3688 25.5287 16.3249 25.548 16.2864 25.5757C16.2479 25.6034 16.2158 25.639 16.192 25.68C16.4594 25.7537 16.742 25.7512 17.008 25.6728C17.097 25.6602 17.182 25.6278 17.2568 25.5779C17.3315 25.5281 17.3942 25.4621 17.44 25.3848C17.4879 25.2755 17.5127 25.1574 17.5127 25.038C17.5127 24.9186 17.4879 24.8005 17.44 24.6912C17.2888 24.3792 16.5832 22.8768 16.3624 22.4064C16.3144 22.3056 16.288 22.2 16.288 22.0848C16.288 21.7968 16.552 21.696 16.7008 21.696C16.8808 21.696 17.0656 21.8328 17.0656 22.0032C17.0656 22.1112 17.0056 22.1784 16.9216 22.1784C16.7176 22.1784 16.7296 22.0056 16.7704 21.8952C16.6432 21.9528 16.5712 22.0536 16.5904 22.1592C16.5116 22.1724 16.4402 22.2133 16.3888 22.2744C16.4368 22.3368 16.4992 22.3848 16.5904 22.3872C16.5496 22.5528 16.6624 22.6224 16.7704 22.6608C16.7368 22.5408 16.7128 22.3992 16.9216 22.3992C17.0728 22.3992 17.1904 22.3752 17.26 22.2744L17.2768 22.9224C17.2864 23.1168 17.0176 23.1144 16.8448 23.0544C16.9096 23.2776 17.0416 23.4 17.3488 23.3688C17.3017 23.3869 17.2616 23.4194 17.234 23.4616C17.2064 23.5038 17.1928 23.5536 17.1952 23.604C17.1952 23.7864 17.344 23.988 17.44 24.048L17.488 22.152V22.1496Z" fill="#FFEC2D"></path>
<path d="M17.44 15.432C17.44 15.432 17.6704 15.2352 17.7496 15.3336C17.8744 15.4896 17.3608 16.2696 17.3608 16.5432C17.3608 16.9944 17.6632 17.1168 18.0328 17.1792C18.2824 17.2224 18.688 17.1624 18.688 17.1624C18.6112 17.0592 18.5608 17.028 18.4336 17.0208C18.5776 16.9488 18.7216 16.7856 18.7216 16.5336C18.7216 16.1472 18.5632 15.9864 18.5632 15.5496C18.5632 15.312 18.76 15 18.76 15C18.4096 15.036 18.2368 15.36 18.3352 15.6192C18.3082 15.6246 18.2803 15.6232 18.2539 15.6153C18.2276 15.6073 18.2035 15.593 18.184 15.5736C18.16 15.6456 18.1984 15.7296 18.2536 15.8016C18.2104 15.8256 18.1768 15.8112 18.1096 15.7968C18.1144 15.8688 18.1576 15.9504 18.268 16.0248C17.9512 15.9432 17.7592 16.1616 17.7592 16.392C17.7592 16.5672 17.8792 16.692 17.9992 16.692C18.0376 16.692 18.0952 16.6752 18.1264 16.6512C18.1504 16.6992 18.136 16.764 18.1144 16.812C18.2008 16.788 18.2584 16.7352 18.2176 16.6272C18.2848 16.6224 18.3376 16.5984 18.3736 16.5552C18.3376 16.5072 18.2824 16.4832 18.2176 16.4832C18.2656 16.3824 18.2104 16.3272 18.1312 16.2816C18.1312 16.2816 18.1816 16.4832 18.0544 16.4832C17.9968 16.4832 17.944 16.4664 17.944 16.38C17.944 16.3056 18.0088 16.2024 18.16 16.2096C18.3088 16.2168 18.4312 16.3128 18.4312 16.5528C18.4312 16.7736 18.2512 16.884 18.016 16.8888C17.8048 16.8984 17.644 16.7832 17.644 16.5648C17.644 16.272 18.064 15.6096 18.064 15.3504C18.064 15.156 17.8912 15.0456 17.7184 15.0456C17.4976 15.0456 17.3104 15.2664 17.3104 15.2664L17.44 15.4296V15.432Z" fill="#FFEC2D"></path>
<path d="M17.392 20.6904C17.392 21.1776 17.8288 21.4272 18.172 21.4272C18.6328 21.4272 18.88 21.1512 18.88 20.7888C18.88 20.5848 18.8416 20.4552 18.748 20.2608L17.6872 18.06C17.6488 17.9674 17.6323 17.8672 17.6392 17.7672C17.6392 17.5704 17.8312 17.4096 18.0304 17.4072C18.2128 17.4 18.4144 17.5752 18.4144 17.7744C18.4144 18.0168 18.2872 18.1248 18.1576 18.1248C17.9992 18.1248 17.9368 18.06 17.9368 17.9472C17.9368 17.8704 17.9728 17.8368 18.028 17.8368C18.1648 17.8368 18.124 18.0192 18.124 18.0192C18.1421 18.0159 18.1592 18.0086 18.1741 17.9979C18.189 17.9871 18.2014 17.9733 18.2103 17.9572C18.2193 17.9412 18.2246 17.9233 18.2258 17.905C18.2271 17.8867 18.2243 17.8683 18.2176 17.8512C18.269 17.8397 18.3153 17.8119 18.3496 17.772C18.3136 17.736 18.2704 17.7096 18.2176 17.7C18.2488 17.5944 18.2056 17.544 18.1144 17.52C18.1308 17.5561 18.135 17.5965 18.1264 17.6352C17.9824 17.592 17.7592 17.6592 17.7592 17.9088C17.7592 18.1584 17.932 18.3672 18.256 18.3168C18.1792 18.3528 18.1408 18.4272 18.1312 18.5112C18.1912 18.4872 18.256 18.4872 18.256 18.4872C18.2176 18.552 18.1648 18.6072 18.1672 18.7416C18.2272 18.7128 18.2848 18.6624 18.3592 18.6936C18.2392 18.9336 18.388 19.26 18.7672 19.3368C18.628 19.1736 18.5608 19.0008 18.5608 18.8256C18.5608 18.2616 18.7168 18.168 18.7168 17.7744C18.7143 17.6831 18.6902 17.5937 18.6464 17.5136C18.6026 17.4335 18.5403 17.3649 18.4648 17.3136V17.3208C18.5112 17.3113 18.5551 17.292 18.5936 17.2643C18.6321 17.2366 18.6643 17.201 18.688 17.16C18.4206 17.0863 18.138 17.0888 17.872 17.1672C17.783 17.1798 17.698 17.2122 17.6232 17.262C17.5485 17.3119 17.4858 17.3779 17.44 17.4552C17.3921 17.5645 17.3673 17.6826 17.3673 17.802C17.3673 17.9214 17.3921 18.0395 17.44 18.1488C17.5912 18.4608 18.2968 19.9632 18.5176 20.4336C18.5656 20.5344 18.592 20.64 18.592 20.7552C18.592 21.0432 18.328 21.144 18.1792 21.144C17.9992 21.144 17.8144 21.0072 17.8144 20.8368C17.8144 20.7288 17.8744 20.6616 17.9584 20.6616C18.1624 20.6616 18.1504 20.8344 18.1096 20.9448C18.2368 20.8872 18.3088 20.7864 18.2896 20.6808C18.3684 20.6676 18.4398 20.6267 18.4912 20.5656C18.4432 20.5032 18.3808 20.4552 18.2896 20.4528C18.3304 20.2872 18.2176 20.2176 18.1096 20.1792C18.1432 20.2992 18.1672 20.4408 17.9584 20.4408C17.8072 20.4408 17.6896 20.4648 17.62 20.5656L17.6032 19.9176C17.5936 19.7232 17.8624 19.7256 18.0352 19.7856C17.9704 19.5624 17.8384 19.44 17.5312 19.4712C17.5783 19.4531 17.6184 19.4206 17.646 19.3784C17.6736 19.3362 17.6872 19.2864 17.6848 19.236C17.6848 19.0536 17.536 18.852 17.44 18.792L17.392 20.688V20.6904Z" fill="#FFEC2D"></path>
<path d="M17.392 22.1496C17.392 21.6624 17.8288 21.4128 18.172 21.4128C18.6328 21.4128 18.88 21.6888 18.88 22.0512C18.88 22.2552 18.8416 22.3848 18.748 22.5792L17.6872 24.78C17.6488 24.8726 17.6323 24.9728 17.6392 25.0728C17.6392 25.2696 17.8312 25.4304 18.0304 25.4328C18.2128 25.44 18.4144 25.2648 18.4144 25.0656C18.4144 24.8232 18.2872 24.7152 18.1576 24.7152C17.9992 24.7152 17.9368 24.78 17.9368 24.8928C17.9368 24.9696 17.9728 25.0032 18.028 25.0032C18.1648 25.0032 18.124 24.8208 18.124 24.8208C18.1421 24.8241 18.1592 24.8314 18.1741 24.8421C18.189 24.8529 18.2014 24.8667 18.2103 24.8828C18.2193 24.8988 18.2246 24.9167 18.2258 24.935C18.2271 24.9533 18.2243 24.9717 18.2176 24.9888C18.269 25.0003 18.3153 25.0281 18.3496 25.068C18.3136 25.104 18.2704 25.1304 18.2176 25.14C18.2488 25.2456 18.2056 25.296 18.1144 25.32C18.1308 25.2839 18.135 25.2435 18.1264 25.2048C17.9824 25.248 17.7592 25.1808 17.7592 24.9312C17.7592 24.6816 17.932 24.4728 18.256 24.5232C18.1792 24.4872 18.1408 24.4128 18.1312 24.3288C18.1912 24.3528 18.256 24.3528 18.256 24.3528C18.2176 24.288 18.1648 24.2328 18.1672 24.0984C18.2272 24.1272 18.2848 24.1776 18.3592 24.1464C18.2392 23.9064 18.388 23.58 18.7672 23.5032C18.628 23.6664 18.5608 23.8392 18.5608 24.0144C18.5608 24.5784 18.7168 24.672 18.7168 25.0656C18.7143 25.1569 18.6902 25.2463 18.6464 25.3264C18.6026 25.4065 18.5403 25.4751 18.4648 25.5264V25.5192C18.5112 25.5287 18.5551 25.548 18.5936 25.5757C18.6321 25.6034 18.6643 25.639 18.688 25.68C18.4206 25.7537 18.138 25.7512 17.872 25.6728C17.783 25.6602 17.698 25.6278 17.6232 25.5779C17.5485 25.5281 17.4858 25.4621 17.44 25.3848C17.3921 25.2755 17.3673 25.1574 17.3673 25.038C17.3673 24.9186 17.3921 24.8005 17.44 24.6912C17.5912 24.3792 18.2968 22.8768 18.5176 22.4064C18.5656 22.3056 18.592 22.2 18.592 22.0848C18.592 21.7968 18.328 21.696 18.1792 21.696C17.9992 21.696 17.8144 21.8328 17.8144 22.0032C17.8144 22.1112 17.8744 22.1784 17.9584 22.1784C18.1624 22.1784 18.1504 22.0056 18.1096 21.8952C18.2368 21.9528 18.3088 22.0536 18.2896 22.1592C18.3684 22.1724 18.4398 22.2133 18.4912 22.2744C18.4432 22.3368 18.3808 22.3848 18.2896 22.3872C18.3304 22.5528 18.2176 22.6224 18.1096 22.6608C18.1432 22.5408 18.1672 22.3992 17.9584 22.3992C17.8072 22.3992 17.6896 22.3752 17.62 22.2744L17.6032 22.9224C17.5936 23.1168 17.8624 23.1144 18.0352 23.0544C17.9704 23.2776 17.8384 23.4 17.5312 23.3688C17.5783 23.3869 17.6184 23.4194 17.646 23.4616C17.6736 23.5038 17.6872 23.5536 17.6848 23.604C17.6848 23.7864 17.536 23.988 17.44 24.048L17.392 22.152V22.1496Z" fill="#FFEC2D"></path>
<path d="M17.44 35.928C17.44 35.928 17.2096 36.1248 17.1304 36.0264C17.0056 35.8704 17.5192 35.0904 17.5192 34.8168C17.5192 34.3656 17.2168 34.2432 16.8472 34.1808C16.5976 34.1376 16.192 34.1976 16.192 34.1976C16.2688 34.3008 16.3192 34.332 16.4464 34.3392C16.3024 34.4112 16.1584 34.5744 16.1584 34.8264C16.1584 35.2128 16.3168 35.3736 16.3168 35.8104C16.3168 36.048 16.12 36.36 16.12 36.36C16.4704 36.324 16.6432 36 16.5448 35.7408C16.5718 35.7354 16.5997 35.7368 16.6261 35.7447C16.6525 35.7527 16.6765 35.767 16.696 35.7864C16.72 35.7144 16.6816 35.6304 16.6264 35.5584C16.6696 35.5344 16.7032 35.5488 16.7704 35.5632C16.7656 35.4912 16.7224 35.4096 16.612 35.3352C16.9288 35.4168 17.1208 35.1984 17.1208 34.968C17.1208 34.7928 17.0008 34.668 16.8808 34.668C16.8424 34.668 16.7848 34.6848 16.7536 34.7088C16.7296 34.6608 16.744 34.596 16.7656 34.548C16.6792 34.572 16.6216 34.6248 16.6624 34.7328C16.5952 34.7376 16.5424 34.7616 16.5064 34.8048C16.5424 34.8528 16.5976 34.8768 16.6624 34.8768C16.6144 34.9776 16.6696 35.0328 16.7488 35.0784C16.7488 35.0784 16.6984 34.8768 16.8256 34.8768C16.8832 34.8768 16.936 34.8936 16.936 34.98C16.936 35.0544 16.8712 35.1576 16.72 35.1504C16.5712 35.1432 16.4488 35.0472 16.4488 34.8072C16.4488 34.5864 16.6288 34.476 16.864 34.4712C17.0752 34.4616 17.236 34.5768 17.236 34.7952C17.236 35.088 16.816 35.7504 16.816 36.0096C16.816 36.204 16.9888 36.3144 17.1616 36.3144C17.3824 36.3144 17.5696 36.0936 17.5696 36.0936L17.44 35.9304V35.928Z" fill="#FFEC2D"></path>
<path d="M17.488 30.6696C17.488 30.1824 17.0512 29.9328 16.708 29.9328C16.2472 29.9328 16 30.2088 16 30.5712C16 30.7752 16.0384 30.9048 16.132 31.0992L17.1928 33.3C17.2312 33.3926 17.2477 33.4928 17.2408 33.5928C17.2408 33.7896 17.0488 33.9504 16.8496 33.9528C16.6672 33.96 16.4656 33.7848 16.4656 33.5856C16.4656 33.3432 16.5928 33.2352 16.7224 33.2352C16.8808 33.2352 16.9432 33.3 16.9432 33.4128C16.9432 33.4896 16.9072 33.5232 16.852 33.5232C16.7152 33.5232 16.756 33.3408 16.756 33.3408C16.7379 33.3441 16.7208 33.3514 16.7059 33.3621C16.691 33.3729 16.6786 33.3867 16.6697 33.4028C16.6607 33.4188 16.6554 33.4367 16.6542 33.455C16.6529 33.4733 16.6557 33.4917 16.6624 33.5088C16.611 33.5203 16.5647 33.5481 16.5304 33.588C16.5664 33.624 16.6096 33.6504 16.6624 33.66C16.6312 33.7656 16.6744 33.816 16.7656 33.84C16.7492 33.8039 16.745 33.7635 16.7536 33.7248C16.8976 33.768 17.1208 33.7008 17.1208 33.4512C17.1208 33.2016 16.948 32.9928 16.624 33.0432C16.7008 33.0072 16.7392 32.9328 16.7488 32.8488C16.6888 32.8728 16.624 32.8728 16.624 32.8728C16.6624 32.808 16.7152 32.7528 16.7128 32.6184C16.6528 32.6472 16.5952 32.6976 16.5208 32.6664C16.6408 32.4264 16.492 32.1 16.1128 32.0232C16.252 32.1864 16.3192 32.3592 16.3192 32.5344C16.3192 33.0984 16.1632 33.192 16.1632 33.5856C16.1657 33.6769 16.1898 33.7663 16.2336 33.8464C16.2774 33.9265 16.3397 33.9951 16.4152 34.0464V34.0392C16.3688 34.0487 16.3249 34.068 16.2864 34.0957C16.2479 34.1234 16.2158 34.159 16.192 34.2C16.4594 34.2737 16.742 34.2712 17.008 34.1928C17.097 34.1802 17.182 34.1478 17.2568 34.098C17.3315 34.0481 17.3942 33.9821 17.44 33.9048C17.4879 33.7955 17.5127 33.6774 17.5127 33.558C17.5127 33.4386 17.4879 33.3205 17.44 33.2112C17.2888 32.8992 16.5832 31.3968 16.3624 30.9264C16.3144 30.8256 16.288 30.72 16.288 30.6048C16.288 30.3168 16.552 30.216 16.7008 30.216C16.8808 30.216 17.0656 30.3528 17.0656 30.5232C17.0656 30.6312 17.0056 30.6984 16.9216 30.6984C16.7176 30.6984 16.7296 30.5256 16.7704 30.4152C16.6432 30.4728 16.5712 30.5736 16.5904 30.6792C16.5116 30.6924 16.4402 30.7333 16.3888 30.7944C16.4368 30.8568 16.4992 30.9048 16.5904 30.9072C16.5496 31.0728 16.6624 31.1424 16.7704 31.1808C16.7368 31.0608 16.7128 30.9192 16.9216 30.9192C17.0728 30.9192 17.1904 30.8952 17.26 30.7944L17.2768 31.4424C17.2864 31.6368 17.0176 31.6344 16.8448 31.5744C16.9096 31.7976 17.0416 31.92 17.3488 31.8888C17.3017 31.9069 17.2616 31.9394 17.234 31.9816C17.2064 32.0238 17.1928 32.0736 17.1952 32.124C17.1952 32.3064 17.344 32.508 17.44 32.568L17.488 30.672V30.6696Z" fill="#FFEC2D"></path>
<path d="M17.488 29.2104C17.488 29.6976 17.0512 29.9472 16.708 29.9472C16.2472 29.9472 16 29.6712 16 29.3088C16 29.1048 16.0384 28.9752 16.132 28.7808L17.1928 26.58C17.2312 26.4874 17.2477 26.3872 17.2408 26.2872C17.2408 26.0904 17.0488 25.9296 16.8496 25.9272C16.6672 25.92 16.4656 26.0952 16.4656 26.2944C16.4656 26.5368 16.5928 26.6448 16.7224 26.6448C16.8808 26.6448 16.9432 26.58 16.9432 26.4672C16.9432 26.3904 16.9072 26.3568 16.852 26.3568C16.7152 26.3568 16.756 26.5392 16.756 26.5392C16.7379 26.5359 16.7208 26.5286 16.7059 26.5179C16.691 26.5071 16.6786 26.4933 16.6697 26.4772C16.6607 26.4612 16.6554 26.4433 16.6542 26.425C16.6529 26.4067 16.6557 26.3883 16.6624 26.3712C16.611 26.3597 16.5647 26.3319 16.5304 26.292C16.5664 26.256 16.6096 26.2296 16.6624 26.22C16.6312 26.1144 16.6744 26.064 16.7656 26.04C16.7492 26.0761 16.745 26.1165 16.7536 26.1552C16.8976 26.112 17.1208 26.1792 17.1208 26.4288C17.1208 26.6784 16.948 26.8872 16.624 26.8368C16.7008 26.8728 16.7392 26.9472 16.7488 27.0312C16.6888 27.0072 16.624 27.0072 16.624 27.0072C16.6624 27.072 16.7152 27.1272 16.7128 27.2616C16.6528 27.2328 16.5952 27.1824 16.5208 27.2136C16.6408 27.4536 16.492 27.78 16.1128 27.8568C16.252 27.6936 16.3192 27.5208 16.3192 27.3456C16.3192 26.7816 16.1632 26.688 16.1632 26.2944C16.1657 26.2031 16.1898 26.1137 16.2336 26.0336C16.2774 25.9535 16.3397 25.8849 16.4152 25.8336V25.8408C16.3688 25.8313 16.3249 25.812 16.2864 25.7843C16.2479 25.7566 16.2158 25.721 16.192 25.68C16.4594 25.6063 16.742 25.6088 17.008 25.6872C17.097 25.6998 17.182 25.7322 17.2568 25.7821C17.3315 25.8319 17.3942 25.8979 17.44 25.9752C17.4879 26.0845 17.5127 26.2026 17.5127 26.322C17.5127 26.4414 17.4879 26.5595 17.44 26.6688C17.2888 26.9808 16.5832 28.4832 16.3624 28.9536C16.3144 29.0544 16.288 29.16 16.288 29.2752C16.288 29.5632 16.552 29.664 16.7008 29.664C16.8808 29.664 17.0656 29.5272 17.0656 29.3568C17.0656 29.2488 17.0056 29.1816 16.9216 29.1816C16.7176 29.1816 16.7296 29.3544 16.7704 29.4648C16.6432 29.4072 16.5712 29.3064 16.5904 29.2008C16.5116 29.1876 16.4402 29.1467 16.3888 29.0856C16.4368 29.0232 16.4992 28.9752 16.5904 28.9728C16.5496 28.8072 16.6624 28.7376 16.7704 28.6992C16.7368 28.8192 16.7128 28.9608 16.9216 28.9608C17.0728 28.9608 17.1904 28.9848 17.26 29.0856L17.2768 28.4376C17.2864 28.2432 17.0176 28.2456 16.8448 28.3056C16.9096 28.0824 17.0416 27.96 17.3488 27.9912C17.3017 27.9731 17.2616 27.9406 17.234 27.8984C17.2064 27.8562 17.1928 27.8064 17.1952 27.756C17.1952 27.5736 17.344 27.372 17.44 27.312L17.488 29.208V29.2104Z" fill="#FFEC2D"></path>
<path d="M17.44 35.928C17.44 35.928 17.6704 36.1248 17.7496 36.0264C17.8744 35.8704 17.3608 35.0904 17.3608 34.8168C17.3608 34.3656 17.6632 34.2432 18.0328 34.1808C18.2824 34.1376 18.688 34.1976 18.688 34.1976C18.6112 34.3008 18.5608 34.332 18.4336 34.3392C18.5776 34.4112 18.7216 34.5744 18.7216 34.8264C18.7216 35.2128 18.5632 35.3736 18.5632 35.8104C18.5632 36.048 18.76 36.36 18.76 36.36C18.4096 36.324 18.2368 36 18.3352 35.7408C18.3082 35.7354 18.2803 35.7368 18.2539 35.7447C18.2276 35.7527 18.2035 35.767 18.184 35.7864C18.16 35.7144 18.1984 35.6304 18.2536 35.5584C18.2104 35.5344 18.1768 35.5488 18.1096 35.5632C18.1144 35.4912 18.1576 35.4096 18.268 35.3352C17.9512 35.4168 17.7592 35.1984 17.7592 34.968C17.7592 34.7928 17.8792 34.668 17.9992 34.668C18.0376 34.668 18.0952 34.6848 18.1264 34.7088C18.1504 34.6608 18.136 34.596 18.1144 34.548C18.2008 34.572 18.2584 34.6248 18.2176 34.7328C18.2848 34.7376 18.3376 34.7616 18.3736 34.8048C18.3376 34.8528 18.2824 34.8768 18.2176 34.8768C18.2656 34.9776 18.2104 35.0328 18.1312 35.0784C18.1312 35.0784 18.1816 34.8768 18.0544 34.8768C17.9968 34.8768 17.944 34.8936 17.944 34.98C17.944 35.0544 18.0088 35.1576 18.16 35.1504C18.3088 35.1432 18.4312 35.0472 18.4312 34.8072C18.4312 34.5864 18.2512 34.476 18.016 34.4712C17.8048 34.4616 17.644 34.5768 17.644 34.7952C17.644 35.088 18.064 35.7504 18.064 36.0096C18.064 36.204 17.8912 36.3144 17.7184 36.3144C17.4976 36.3144 17.3104 36.0936 17.3104 36.0936L17.44 35.9304V35.928Z" fill="#FFEC2D"></path>
<path d="M17.392 30.6696C17.392 30.1824 17.8288 29.9328 18.172 29.9328C18.6328 29.9328 18.88 30.2088 18.88 30.5712C18.88 30.7752 18.8416 30.9048 18.748 31.0992L17.6872 33.3C17.6488 33.3926 17.6323 33.4928 17.6392 33.5928C17.6392 33.7896 17.8312 33.9504 18.0304 33.9528C18.2128 33.96 18.4144 33.7848 18.4144 33.5856C18.4144 33.3432 18.2872 33.2352 18.1576 33.2352C17.9992 33.2352 17.9368 33.3 17.9368 33.4128C17.9368 33.4896 17.9728 33.5232 18.028 33.5232C18.1648 33.5232 18.124 33.3408 18.124 33.3408C18.1421 33.3441 18.1592 33.3514 18.1741 33.3621C18.189 33.3729 18.2014 33.3867 18.2103 33.4028C18.2193 33.4188 18.2246 33.4367 18.2258 33.455C18.2271 33.4733 18.2243 33.4917 18.2176 33.5088C18.269 33.5203 18.3153 33.5481 18.3496 33.588C18.3136 33.624 18.2704 33.6504 18.2176 33.66C18.2488 33.7656 18.2056 33.816 18.1144 33.84C18.1308 33.8039 18.135 33.7635 18.1264 33.7248C17.9824 33.768 17.7592 33.7008 17.7592 33.4512C17.7592 33.2016 17.932 32.9928 18.256 33.0432C18.1792 33.0072 18.1408 32.9328 18.1312 32.8488C18.1912 32.8728 18.256 32.8728 18.256 32.8728C18.2176 32.808 18.1648 32.7528 18.1672 32.6184C18.2272 32.6472 18.2848 32.6976 18.3592 32.6664C18.2392 32.4264 18.388 32.1 18.7672 32.0232C18.628 32.1864 18.5608 32.3592 18.5608 32.5344C18.5608 33.0984 18.7168 33.192 18.7168 33.5856C18.7143 33.6769 18.6902 33.7663 18.6464 33.8464C18.6026 33.9265 18.5403 33.9951 18.4648 34.0464V34.0392C18.5112 34.0487 18.5551 34.068 18.5936 34.0957C18.6321 34.1234 18.6643 34.159 18.688 34.2C18.4206 34.2737 18.138 34.2712 17.872 34.1928C17.783 34.1802 17.698 34.1478 17.6232 34.098C17.5485 34.0481 17.4858 33.9821 17.44 33.9048C17.3921 33.7955 17.3673 33.6774 17.3673 33.558C17.3673 33.4386 17.3921 33.3205 17.44 33.2112C17.5912 32.8992 18.2968 31.3968 18.5176 30.9264C18.5656 30.8256 18.592 30.72 18.592 30.6048C18.592 30.3168 18.328 30.216 18.1792 30.216C17.9992 30.216 17.8144 30.3528 17.8144 30.5232C17.8144 30.6312 17.8744 30.6984 17.9584 30.6984C18.1624 30.6984 18.1504 30.5256 18.1096 30.4152C18.2368 30.4728 18.3088 30.5736 18.2896 30.6792C18.3684 30.6924 18.4398 30.7333 18.4912 30.7944C18.4432 30.8568 18.3808 30.9048 18.2896 30.9072C18.3304 31.0728 18.2176 31.1424 18.1096 31.1808C18.1432 31.0608 18.1672 30.9192 17.9584 30.9192C17.8072 30.9192 17.6896 30.8952 17.62 30.7944L17.6032 31.4424C17.5936 31.6368 17.8624 31.6344 18.0352 31.5744C17.9704 31.7976 17.8384 31.92 17.5312 31.8888C17.5783 31.9069 17.6184 31.9394 17.646 31.9816C17.6736 32.0238 17.6872 32.0736 17.6848 32.124C17.6848 32.3064 17.536 32.508 17.44 32.568L17.392 30.672V30.6696Z" fill="#FFEC2D"></path>
<path d="M17.392 29.2104C17.392 29.6976 17.8288 29.9472 18.172 29.9472C18.6328 29.9472 18.88 29.6712 18.88 29.3088C18.88 29.1048 18.8416 28.9752 18.748 28.7808L17.6872 26.58C17.6488 26.4874 17.6323 26.3872 17.6392 26.2872C17.6392 26.0904 17.8312 25.9296 18.0304 25.9272C18.2128 25.92 18.4144 26.0952 18.4144 26.2944C18.4144 26.5368 18.2872 26.6448 18.1576 26.6448C17.9992 26.6448 17.9368 26.58 17.9368 26.4672C17.9368 26.3904 17.9728 26.3568 18.028 26.3568C18.1648 26.3568 18.124 26.5392 18.124 26.5392C18.1421 26.5359 18.1592 26.5286 18.1741 26.5179C18.189 26.5071 18.2014 26.4933 18.2103 26.4772C18.2193 26.4612 18.2246 26.4433 18.2258 26.425C18.2271 26.4067 18.2243 26.3883 18.2176 26.3712C18.269 26.3597 18.3153 26.3319 18.3496 26.292C18.3136 26.256 18.2704 26.2296 18.2176 26.22C18.2488 26.1144 18.2056 26.064 18.1144 26.04C18.1308 26.0761 18.135 26.1165 18.1264 26.1552C17.9824 26.112 17.7592 26.1792 17.7592 26.4288C17.7592 26.6784 17.932 26.8872 18.256 26.8368C18.1792 26.8728 18.1408 26.9472 18.1312 27.0312C18.1912 27.0072 18.256 27.0072 18.256 27.0072C18.2176 27.072 18.1648 27.1272 18.1672 27.2616C18.2272 27.2328 18.2848 27.1824 18.3592 27.2136C18.2392 27.4536 18.388 27.78 18.7672 27.8568C18.628 27.6936 18.5608 27.5208 18.5608 27.3456C18.5608 26.7816 18.7168 26.688 18.7168 26.2944C18.7143 26.2031 18.6902 26.1137 18.6464 26.0336C18.6026 25.9535 18.5403 25.8849 18.4648 25.8336V25.8408C18.5112 25.8313 18.5551 25.812 18.5936 25.7843C18.6321 25.7566 18.6643 25.721 18.688 25.68C18.4206 25.6063 18.138 25.6088 17.872 25.6872C17.783 25.6998 17.698 25.7322 17.6232 25.7821C17.5485 25.8319 17.4858 25.8979 17.44 25.9752C17.3921 26.0845 17.3673 26.2026 17.3673 26.322C17.3673 26.4414 17.3921 26.5595 17.44 26.6688C17.5912 26.9808 18.2968 28.4832 18.5176 28.9536C18.5656 29.0544 18.592 29.16 18.592 29.2752C18.592 29.5632 18.328 29.664 18.1792 29.664C17.9992 29.664 17.8144 29.5272 17.8144 29.3568C17.8144 29.2488 17.8744 29.1816 17.9584 29.1816C18.1624 29.1816 18.1504 29.3544 18.1096 29.4648C18.2368 29.4072 18.3088 29.3064 18.2896 29.2008C18.3684 29.1876 18.4398 29.1467 18.4912 29.0856C18.4432 29.0232 18.3808 28.9752 18.2896 28.9728C18.3304 28.8072 18.2176 28.7376 18.1096 28.6992C18.1432 28.8192 18.1672 28.9608 17.9584 28.9608C17.8072 28.9608 17.6896 28.9848 17.62 29.0856L17.6032 28.4376C17.5936 28.2432 17.8624 28.2456 18.0352 28.3056C17.9704 28.0824 17.8384 27.96 17.5312 27.9912C17.5783 27.9731 17.6184 27.9406 17.646 27.8984C17.6736 27.8562 17.6872 27.8064 17.6848 27.756C17.6848 27.5736 17.536 27.372 17.44 27.312L17.392 29.208V29.2104Z" fill="#FFEC2D"></path>
</g>
</g>
<defs>
<filter id="filter0_d_302_1238" x="0" y="0" width="52" height="52" filterUnits="userSpaceOnUse" color-interpolation-filters="sRGB">
<feFlood flood-opacity="0" result="BackgroundImageFix"></feFlood>
<feColorMatrix in="SourceAlpha" type="matrix" values="0 0 0 0 0 0 0 0 0 0 0 0 0 0 0 0 0 0 127 0" result="hardAlpha"></feColorMatrix>
<feMorphology radius="2" operator="dilate" in="SourceAlpha" result="effect1_dropShadow_302_1238"></feMorphology>
<feOffset></feOffset>
<feGaussianBlur stdDeviation="6"></feGaussianBlur>
<feComposite in2="hardAlpha" operator="out"></feComposite>
<feColorMatrix type="matrix" values="0 0 0 0 0 0 0 0 0 0 0 0 0 0 0 0 0 0 0.08 0"></feColorMatrix>
<feBlend mode="normal" in2="BackgroundImageFix" result="effect1_dropShadow_302_1238"></feBlend>
<feBlend mode="normal" in="SourceGraphic" in2="effect1_dropShadow_302_1238" result="shape"></feBlend>
</filter>
<clipPath id="clip0_302_1238">
<rect x="14" y="14" width="24" height="24" rx="6" fill="white"></rect>
</clipPath>
</defs>
</svg>